# xmcd
#
# Track frame offsets: 
#        150
#        12445
#        20699
#        31643
#        42234
#        53095
#        64556
#        74326
#        87595
#        99726
#        109296
#
# Disc length: 1600 seconds
#
# Revision: 0
# Processed by: cddbd v1.5.2PL0 Copyright (c) Steve Scherf et al.
# Submitted via: ExactAudioCopy v1.3
#
DISCID=8f063e0b
DTITLE=Loretta Lynn - Entertainer Of The Year
DYEAR=1972
DGENRE=Country
TTITLE0=Here I Am Again
TTITLE1=My Kind Of Man
TTITLE2=Manhattan Kansas
TTITLE3=Be Proud Of Your Man
TTITLE4=There's A Built-In Trouble Maker In Every Man
TTITLE5=Love Takes A Long Time Dyin'
TTITLE6=Delta Dawn
TTITLE7=The Best Years Of My Life
TTITLE8=Here I Am Again
TTITLE9=A Woman A Day
TTITLE10=I Miss You More Today
EXTD=
EXTT0=
EXTT1=
EXTT2=
EXTT3=
EXTT4=
EXTT5=
EXTT6=
EXTT7=
EXTT8=
EXTT9=
EXTT10=
PLAYORDER=
